<svg width="144" height="144" viewBox="0 0 144 144" fill="none" xmlns="http://www.w3.org/2000/svg">
<rect width="144" height="144" rx="49.552" fill="#03278F"/>
<path d="M35.3372 50.0652H29.3218V84.774H35.3372V50.0652Z" fill="white"/>
<path d="M46.5757 60.1128H40.5603V84.7744H46.5757V60.1128Z" fill="white"/>
<path d="M47.2456 52.8154C47.2456 53.5375 47.0313 54.2434 46.6297 54.8437C46.2281 55.4441 45.6574 55.9121 44.9896 56.1884C44.3218 56.4647 43.587 56.537 42.8781 56.3961C42.1692 56.2553 41.518 55.9076 41.0069 55.397C40.4958 54.8864 40.1478 54.2359 40.0067 53.5277C39.8657 52.8195 39.9381 52.0854 40.2147 51.4183C40.4913 50.7512 40.9597 50.181 41.5607 49.7798C42.1617 49.3787 42.8683 49.1646 43.5911 49.1646C44.5603 49.1646 45.4899 49.5492 46.1752 50.2339C46.8606 50.9185 47.2456 51.8472 47.2456 52.8154Z" fill="white"/>
<path d="M101.39 81.2753C101.389 82.0784 101.151 82.8632 100.704 83.5307C100.257 84.1982 99.6218 84.7185 98.8792 85.0258C98.1365 85.3331 97.3194 85.4137 96.5309 85.2573C95.7424 85.101 95.018 84.7148 94.4491 84.1475C93.8801 83.5802 93.4922 82.8572 93.3344 82.0697C93.1765 81.2823 93.2557 80.4659 93.562 79.7234C93.8682 78.9809 94.3879 78.3458 95.0553 77.8981C95.7226 77.4505 96.5078 77.2104 97.3117 77.2083C97.8461 77.2083 98.3753 77.3135 98.8691 77.5179C99.3628 77.7223 99.8114 78.022 100.189 78.3997C100.567 78.7774 100.866 79.2258 101.071 79.7192C101.275 80.2126 101.38 80.7414 101.379 81.2753" fill="white"/>
<path d="M101.39 63.6203C101.389 64.4232 101.149 65.2076 100.702 65.8747C100.254 66.5417 99.6194 67.0614 98.8766 67.3681C98.1339 67.6749 97.3169 67.7549 96.5286 67.5982C95.7404 67.4415 95.0163 67.055 94.4478 66.4875C93.8792 65.92 93.4917 65.197 93.3341 64.4097C93.1765 63.6224 93.2559 62.8061 93.5623 62.0639C93.8687 61.3216 94.3883 60.6867 95.0556 60.2392C95.7229 59.7917 96.508 59.5517 97.3117 59.5496C98.3908 59.5505 99.4253 59.9794 100.188 60.7421C100.951 61.5047 101.379 62.5386 101.379 63.6166" fill="white"/>
<path d="M106.5 48.8691L103.156 51.3554C106.752 57.7079 108.558 63.5858 108.558 71.6907C108.558 79.7957 106.738 85.6845 103.156 92.0334L106.518 94.5196C111.616 88.5833 114.679 80.0074 114.679 71.6944C114.679 63.3814 111.616 54.8091 106.518 48.8691" fill="white"/>
<path d="M62.3642 54.9681C63.3753 54.9444 64.3819 55.1104 65.3317 55.4574V50.6309C63.8886 50.1647 62.3787 49.9377 60.8622 49.9591C58.3735 49.9591 56.3013 50.6309 54.9638 51.9635C53.6262 53.296 52.9063 55.0229 52.9063 58.2211V60.1159H49.5002V64.862H52.9063V84.7702H58.8668V64.851H65.2769V60.1049H58.6768V58.776C58.6768 56.151 60.1642 54.9572 62.3642 54.9572" fill="white"/>
<path d="M77.3587 59.5502C69.9035 59.5502 65.0283 65.0266 65.0283 72.1604C65.0283 80.3529 70.6673 85.3436 77.98 85.3436C82.6176 85.3436 85.914 83.4817 88.3041 80.6158L85.1064 77.779C83.2429 79.4984 80.8088 80.4684 78.2724 80.5026H78.075C74.362 80.5026 71.4311 78.3814 70.9158 74.2669H88.9473C89.6782 68.2831 87.7851 59.5356 77.3587 59.5356V59.5502ZM71.0071 70.1232C71.6028 66.3628 74.0879 64.3804 77.3112 64.3804C80.8342 64.3804 83.3376 66.4029 83.3997 70.1232H71.0071Z" fill="white"/>
</svg>
