<?xml version="1.0" encoding="utf-8"?>
<!-- Generator: Adobe Illustrator 27.9.0, SVG Export Plug-In . SVG Version: 6.00 Build 0)  -->
<svg version="1.1" id="Layer_1" xmlns="http://www.w3.org/2000/svg" xmlns:xlink="http://www.w3.org/1999/xlink" x="0px" y="0px"
	 viewBox="0 0 2000 2000" style="enable-background:new 0 0 2000 2000;" xml:space="preserve">
<style type="text/css">
	.st0{fill:#1D1D1B;}
	.st1{fill:#FBC138;}
	.st2{fill:#F9B434;}
	.st3{fill:#FAB42A;}
	.st4{clip-path:url(#SVGID_00000054950654702126471870000009175469135047094406_);fill:#FAB42A;}
	.st5{fill:#F7941D;}
</style>
<g>
	<g>
		<g>
			<polygon class="st0" points="1073.97,571.95 1073.97,592.49 1057.71,592.49 1064.67,577.82 1067.49,571.95 			"/>
		</g>
	</g>
	<g>
		<g>
			<polygon class="st0" points="1626.62,582.25 1626.62,1462.87 1616.3,1473.18 383.7,1473.18 373.38,1462.87 373.38,582.25 
				383.7,571.94 461.06,571.94 461.06,522.3 471.37,511.99 648.01,511.99 658.33,522.3 658.33,571.94 1067.69,571.94 
				1064.47,577.74 1058.02,592.57 1026.43,657.68 1000,713.12 1007.09,713.12 1007.09,723.43 1005.8,725.37 1001.94,733.75 
				481.69,733.75 481.69,1317.18 931.67,1317.18 931.67,1327.49 931.02,1328.78 928.44,1337.81 917.48,1337.81 907.17,1371.97 
				882.67,1451.91 963.9,1451.91 970.99,1439.02 1016.12,1352.63 1024.5,1337.81 1018.05,1337.81 1018.05,1327.49 1023.21,1317.18 
				1518.31,1317.18 1518.31,733.75 1075.43,733.75 1075.43,723.43 1078.65,713.12 1088.96,713.12 1108.95,646.08 1125.07,592.57 
				1127,584.83 1130.87,571.94 1341.67,571.94 1341.67,522.3 1351.99,511.99 1527.98,511.99 1538.3,522.3 1538.3,571.94 
				1616.3,571.94 			"/>
			<polygon class="st0" points="931.02,1328.78 931.67,1327.49 931.67,1337.81 928.44,1337.81 			"/>
			<polygon class="st0" points="1007.09,723.43 1007.09,733.75 1001.94,733.75 1005.8,725.37 			"/>
		</g>
	</g>
	<g>
		<g>
			<polygon class="st0" points="1023.21,1317.18 1018.05,1327.49 1018.05,1317.18 			"/>
			<polygon class="st0" points="1078.65,713.12 1075.43,723.43 1075.43,713.12 			"/>
		</g>
	</g>
	<g>
		<g>
			<polygon class="st0" points="1130.87,571.94 1127,584.83 1125.07,592.57 1117.33,592.57 1117.33,571.94 			"/>
		</g>
	</g>
	<g>
		<g>
			<polygon class="st1" points="905.88,1418.39 905.88,1451.91 897.5,1451.91 			"/>
			<polygon class="st2" points="1186.96,345.66 1180.51,366.29 1180.51,358.55 			"/>
			<polygon class="st3" points="1280.43,829.16 1255.93,876.22 1230.79,923.93 1205.65,970.99 1180.51,1018.69 1156.01,1066.4 
				1130.87,1113.46 1105.73,1161.17 1080.58,1208.23 1056.09,1255.93 1030.94,1303 1023.21,1317.18 1018.05,1327.49 
				1007.09,1347.48 1005.8,1350.05 980.66,1397.76 961.96,1433.86 955.52,1441.6 947.14,1451.91 905.88,1451.91 905.88,1418.39 
				916.84,1375.2 928.44,1337.81 931.02,1328.78 931.67,1327.49 955.52,1246.91 980.02,1166.97 931.02,1185.02 905.88,1194.05 
				880.74,1203.07 855.59,1212.74 831.1,1221.77 805.95,1230.79 780.81,1239.81 755.67,1249.49 780.81,1196.62 831.1,1092.19 
				855.59,1039.97 880.74,987.11 905.88,934.89 931.02,882.67 955.52,830.45 980.66,777.59 992.91,752.45 1001.94,733.75 
				1005.8,725.37 1007.09,723.43 1030.94,673.15 1036.1,662.19 1056.09,620.29 1074.14,582.25 1080.58,568.07 1105.73,515.85 
				1130.87,462.99 1156.01,410.77 1180.51,358.55 1180.51,366.29 1156.01,451.39 1130.87,535.84 1120.55,571.94 1117.33,582.25 
				1105.73,620.93 1099.28,642.85 1080.58,705.39 1078.65,713.12 1075.43,723.43 1074.14,727.95 1056.09,789.84 1030.94,874.29 
				1013.54,932.31 1030.94,925.86 1056.09,916.19 1080.58,906.52 1105.73,896.85 1130.87,887.18 1156.01,877.51 1180.51,867.84 
				1230.79,848.5 1255.93,838.83 			"/>
		</g>
		<g>
			<g>
				<defs>
					<path id="SVGID_1_" d="M1276.96,819.42l-247.45,95.63l53.48-181.2l0.8-2.73l1.45-4.61l3.9-13.2l19.95-67.38l15.7-53.44
						l2.16-7.36l3.88-13.18l65.77-223.12l-19.13-7.33l-110.01,230.45l-2.81,5.87l-6.96,14.67l-31.02,65.45l-26.41,55.37l-2.77,5.83
						l-7.04,14.71l-6.94,14.5l-236.91,496.43l12.81,14.06l204.99-75.26l-40.66,133.44l-6.25,20.54l-10.56,34.62l-24.19,79.81
						l21.46,0.02l22.4-73.84l63.5-208.36l-13.37-12.64l-200.71,73.69l226.03-473.65l14-29.21l29.19-61.24l38-80.12l57.15-119.71
						l-33.14,112.4l-17.84,60.78l-23.79,80.37l-1.43,4.53l-60.27,204.22l13.56,12.49l241.33-93.26l-249.78,473.95l-10.94,20.41
						l-45.39,86.49l-11.99,22.72l23.22,0.02l6.96-13.16l45.35-86.43l7.99-14.92l2.95-5.49l7.94-15.05l254.66-483.23L1276.96,819.42z
						"/>
				</defs>
				<use xlink:href="#SVGID_1_"  style="overflow:visible;fill:#FAB42A;"/>
				<clipPath id="SVGID_00000016046539819346309840000013558698776706979713_">
					<use xlink:href="#SVGID_1_"  style="overflow:visible;"/>
				</clipPath>
				<path style="clip-path:url(#SVGID_00000016046539819346309840000013558698776706979713_);fill:#FAB42A;" d="M746.61,341.5
					v1110.55V341.5z"/>
				
					<rect x="746.61" y="341.5" style="clip-path:url(#SVGID_00000016046539819346309840000013558698776706979713_);fill:#FAB42A;" width="25.86" height="1110.55"/>
				
					<rect x="772.47" y="341.5" style="clip-path:url(#SVGID_00000016046539819346309840000013558698776706979713_);fill:#FAB42A;" width="25.86" height="1110.55"/>
				
					<rect x="798.33" y="341.5" style="clip-path:url(#SVGID_00000016046539819346309840000013558698776706979713_);fill:#FAB42A;" width="25.86" height="1110.55"/>
				
					<rect x="824.2" y="341.5" style="clip-path:url(#SVGID_00000016046539819346309840000013558698776706979713_);fill:#FAB42A;" width="25.86" height="1110.55"/>
				
					<rect x="850.06" y="341.5" style="clip-path:url(#SVGID_00000016046539819346309840000013558698776706979713_);fill:#FAB42A;" width="25.86" height="1110.55"/>
				
					<rect x="875.93" y="341.5" style="clip-path:url(#SVGID_00000016046539819346309840000013558698776706979713_);fill:#FAB42A;" width="25.86" height="1110.55"/>
				
					<rect x="901.79" y="341.5" style="clip-path:url(#SVGID_00000016046539819346309840000013558698776706979713_);fill:#FAB42A;" width="25.86" height="1110.55"/>
				
					<rect x="927.66" y="341.5" style="clip-path:url(#SVGID_00000016046539819346309840000013558698776706979713_);fill:#FAB42A;" width="25.86" height="1110.55"/>
				
					<rect x="953.52" y="341.5" style="clip-path:url(#SVGID_00000016046539819346309840000013558698776706979713_);fill:#FAB42A;" width="25.86" height="1110.55"/>
				
					<rect x="979.38" y="341.5" style="clip-path:url(#SVGID_00000016046539819346309840000013558698776706979713_);fill:#FAB42A;" width="25.86" height="1110.55"/>
				
					<rect x="1005.25" y="341.5" style="clip-path:url(#SVGID_00000016046539819346309840000013558698776706979713_);fill:#FAB42A;" width="25.86" height="1110.55"/>
				
					<rect x="1031.11" y="341.5" style="clip-path:url(#SVGID_00000016046539819346309840000013558698776706979713_);fill:#FAB42A;" width="25.86" height="1110.55"/>
				
					<rect x="1056.98" y="341.5" style="clip-path:url(#SVGID_00000016046539819346309840000013558698776706979713_);fill:#FAB42A;" width="25.86" height="1110.55"/>
				
					<rect x="1082.84" y="341.5" style="clip-path:url(#SVGID_00000016046539819346309840000013558698776706979713_);fill:#FAB42A;" width="25.86" height="1110.55"/>
				
					<rect x="1108.71" y="341.5" style="clip-path:url(#SVGID_00000016046539819346309840000013558698776706979713_);fill:#FAB42A;" width="25.86" height="1110.55"/>
				
					<rect x="1134.57" y="341.5" style="clip-path:url(#SVGID_00000016046539819346309840000013558698776706979713_);fill:#FAB42A;" width="25.86" height="1110.55"/>
				
					<rect x="1160.44" y="341.5" style="clip-path:url(#SVGID_00000016046539819346309840000013558698776706979713_);fill:#FAB42A;" width="25.86" height="1110.55"/>
				
					<rect x="1186.3" y="341.5" style="clip-path:url(#SVGID_00000016046539819346309840000013558698776706979713_);fill:#FAB42A;" width="25.86" height="1110.55"/>
				
					<rect x="1212.16" y="341.5" style="clip-path:url(#SVGID_00000016046539819346309840000013558698776706979713_);fill:#FAB42A;" width="25.86" height="1110.55"/>
				
					<rect x="1238.03" y="341.5" style="clip-path:url(#SVGID_00000016046539819346309840000013558698776706979713_);fill:#FAB42A;" width="25.86" height="1110.55"/>
				
					<rect x="1263.89" y="341.5" style="clip-path:url(#SVGID_00000016046539819346309840000013558698776706979713_);fill:#FAB42A;" width="25.86" height="1110.55"/>
				<path style="clip-path:url(#SVGID_00000016046539819346309840000013558698776706979713_);fill:#FAB42A;" d="M1289.76,1452.06
					V341.5V1452.06z"/>
			</g>
		</g>
	</g>
	<g>
		<g>
			<path class="st5" d="M865.15,1500.21h34.01v122.97h63.01v31.4h-97.03V1500.21z"/>
		</g>
		<g>
			<path class="st5" d="M66.72,1500.21h28.13L162,1654.57h-38.37l-13.3-32.7H50.37l-12.86,32.7H0L66.72,1500.21z M79.8,1545.12
				l-18.75,47.97h37.72L79.8,1545.12z"/>
		</g>
		<g>
			<path class="st5" d="M178.79,1500.21h34.01v64.1l59.96-64.1h44.48l-68.68,71.73l74.57,82.63h-47.53l-62.79-73.26v73.26h-34.01
				V1500.21z"/>
		</g>
		<g>
			<path class="st5" d="M465.06,1595.05c0,9.16-1.38,17.59-4.14,25.29c-2.76,7.71-6.87,14.39-12.32,20.06
				c-5.45,5.67-12.25,10.1-20.39,13.3c-8.14,3.2-17.52,4.8-28.13,4.8c-10.76,0-20.21-1.6-28.34-4.8c-8.14-3.2-14.94-7.63-20.39-13.3
				s-9.56-12.35-12.32-20.06c-2.76-7.7-4.14-16.13-4.14-25.29v-94.84h34.01v93.54c0,4.8,0.76,9.23,2.29,13.3
				c1.53,4.07,3.67,7.6,6.43,10.57c2.76,2.98,6.07,5.31,9.92,6.98c3.85,1.67,8.03,2.51,12.54,2.51c4.5,0,8.65-0.83,12.43-2.51
				c3.78-1.67,7.05-4,9.81-6.98c2.76-2.98,4.91-6.5,6.43-10.57c1.53-4.07,2.29-8.5,2.29-13.3v-93.54h34.01V1595.05z"/>
		</g>
		<g>
			<path class="st5" d="M496.46,1500.21h51.46l35.54,100.73h0.44l35.76-100.73h51.24v154.37h-34.01v-118.39h-0.44l-40.55,118.39
				h-25.95l-39.03-118.39h-0.44v118.39h-34.01V1500.21z"/>
		</g>
		<g>
			<path class="st5" d="M832.44,1595.05c0,9.16-1.38,17.59-4.14,25.29c-2.76,7.71-6.87,14.39-12.32,20.06
				c-5.45,5.67-12.25,10.1-20.39,13.3c-8.14,3.2-17.52,4.8-28.13,4.8c-10.76,0-20.21-1.6-28.34-4.8c-8.14-3.2-14.93-7.63-20.39-13.3
				c-5.45-5.67-9.56-12.35-12.32-20.06c-2.76-7.7-4.14-16.13-4.14-25.29v-94.84h34.01v93.54c0,4.8,0.76,9.23,2.29,13.3
				c1.53,4.07,3.67,7.6,6.43,10.57c2.76,2.98,6.07,5.31,9.92,6.98c3.85,1.67,8.03,2.51,12.54,2.51c4.5,0,8.65-0.83,12.43-2.51
				c3.78-1.67,7.05-4,9.81-6.98c2.76-2.98,4.91-6.5,6.43-10.57c1.53-4.07,2.29-8.5,2.29-13.3v-93.54h34.01V1595.05z"/>
		</g>
		<g>
			<path class="st5" d="M994.66,1588.73l-58-88.52h42.3l32.7,57.78l34.67-57.78h40.34l-58,88.52v65.85h-34.01V1588.73z"/>
		</g>
		<g>
			<path class="st5" d="M1132.67,1500.21h28.13l67.15,154.37h-38.37l-13.3-32.7h-59.96l-12.86,32.7h-37.5L1132.67,1500.21z
				 M1145.76,1545.12l-18.75,47.97h37.72L1145.76,1545.12z"/>
		</g>
		<g>
			<path class="st5" d="M1253.25,1530.29h-44.04v-30.09h122.1v30.09h-44.04v124.28h-34.01V1530.29z"/>
		</g>
		<g>
			<path class="st5" d="M1340.24,1577.39c0-12.35,2.07-23.55,6.21-33.58s9.92-18.57,17.33-25.62c7.41-7.05,16.2-12.46,26.38-16.24
				c10.17-3.78,21.29-5.67,33.36-5.67c12.06,0,23.18,1.89,33.36,5.67c10.17,3.78,18.97,9.19,26.38,16.24
				c7.41,7.05,13.19,15.59,17.33,25.62c4.14,10.03,6.21,21.22,6.21,33.58c0,12.36-2.07,23.55-6.21,33.58
				c-4.14,10.03-9.92,18.57-17.33,25.62c-7.41,7.05-16.21,12.47-26.38,16.24c-10.18,3.78-21.3,5.67-33.36,5.67
				c-12.07,0-23.19-1.89-33.36-5.67c-10.18-3.78-18.97-9.19-26.38-16.24c-7.42-7.05-13.19-15.59-17.33-25.62
				S1340.24,1589.75,1340.24,1577.39z M1375.56,1577.39c0,7.27,1.12,13.92,3.38,19.95c2.25,6.03,5.48,11.27,9.7,15.7
				c4.22,4.44,9.27,7.89,15.15,10.36c5.89,2.47,12.46,3.71,19.73,3.71c7.27,0,13.85-1.23,19.73-3.71
				c5.89-2.47,10.94-5.92,15.15-10.36c4.21-4.43,7.45-9.67,9.7-15.7c2.25-6.03,3.38-12.68,3.38-19.95c0-7.12-1.13-13.74-3.38-19.84
				c-2.26-6.1-5.49-11.37-9.7-15.81c-4.22-4.43-9.27-7.88-15.15-10.36c-5.89-2.47-12.47-3.71-19.73-3.71
				c-7.27,0-13.85,1.24-19.73,3.71c-5.89,2.47-10.94,5.92-15.15,10.36c-4.22,4.44-7.45,9.7-9.7,15.81
				C1376.68,1563.65,1375.56,1570.27,1375.56,1577.39z"/>
		</g>
		<g>
			<path class="st5" d="M1529.93,1500.21h59.74c7.85,0,15.3,0.76,22.35,2.29c7.05,1.53,13.23,4.07,18.53,7.63
				c5.3,3.56,9.52,8.36,12.64,14.39c3.12,6.03,4.69,13.56,4.69,22.57c0,10.9-2.83,20.17-8.5,27.8c-5.67,7.63-13.95,12.47-24.85,14.5
				l39.25,65.19H1613l-32.27-61.7h-16.79v61.7h-34.01V1500.21z M1563.94,1564.09H1584c3.05,0,6.28-0.11,9.7-0.33
				c3.41-0.22,6.5-0.87,9.27-1.96c2.76-1.09,5.05-2.8,6.87-5.12c1.82-2.32,2.72-5.59,2.72-9.81c0-3.92-0.8-7.05-2.4-9.37
				c-1.6-2.32-3.63-4.11-6.11-5.34c-2.47-1.23-5.31-2.07-8.5-2.51c-3.2-0.44-6.32-0.65-9.38-0.65h-22.24V1564.09z"/>
		</g>
		<g>
			<path class="st5" d="M1667.72,1635.82c0-2.76,0.51-5.38,1.53-7.85c1.02-2.47,2.43-4.61,4.25-6.43c1.82-1.82,3.96-3.23,6.43-4.25
				c2.47-1.01,5.09-1.53,7.85-1.53c2.76,0,5.38,0.51,7.85,1.53c2.47,1.02,4.61,2.44,6.43,4.25c1.82,1.82,3.23,3.96,4.25,6.43
				c1.02,2.47,1.53,5.09,1.53,7.85c0,2.76-0.51,5.38-1.53,7.85c-1.02,2.47-2.44,4.62-4.25,6.43c-1.82,1.82-3.96,3.24-6.43,4.25
				c-2.47,1.02-5.09,1.53-7.85,1.53c-2.76,0-5.38-0.51-7.85-1.53c-2.47-1.01-4.62-2.43-6.43-4.25c-1.82-1.82-3.24-3.96-4.25-6.43
				C1668.23,1641.2,1667.72,1638.59,1667.72,1635.82z"/>
		</g>
		<g>
			<path class="st5" d="M1728.77,1500.21h57.56c6.68,0,13.41,0.47,20.17,1.42c6.76,0.95,12.83,2.83,18.21,5.67
				c5.38,2.83,9.74,6.8,13.08,11.88c3.34,5.09,5.01,11.85,5.01,20.28c0,8.72-2.44,15.95-7.3,21.7c-4.87,5.74-11.3,9.85-19.3,12.32
				v0.44c5.09,0.73,9.7,2.15,13.85,4.25c4.14,2.11,7.7,4.8,10.68,8.07c2.98,3.27,5.27,7.09,6.87,11.45c1.6,4.36,2.4,9.01,2.4,13.95
				c0,8.14-1.74,14.93-5.23,20.39c-3.49,5.45-8,9.85-13.52,13.19c-5.53,3.35-11.74,5.75-18.64,7.2c-6.91,1.45-13.77,2.18-20.6,2.18
				h-63.23V1500.21z M1762.78,1561.91h24.64c2.62,0,5.2-0.29,7.74-0.87c2.54-0.58,4.83-1.53,6.87-2.83
				c2.03-1.31,3.67-3.05,4.91-5.23c1.23-2.18,1.85-4.8,1.85-7.85c0-3.2-0.69-5.85-2.07-7.96c-1.38-2.11-3.16-3.74-5.34-4.91
				c-2.18-1.16-4.65-2-7.41-2.51c-2.76-0.51-5.45-0.76-8.07-0.76h-23.11V1561.91z M1762.78,1625.79h30.52
				c2.62,0,5.27-0.29,7.96-0.87c2.69-0.58,5.12-1.6,7.3-3.05c2.18-1.45,3.96-3.34,5.34-5.67c1.38-2.32,2.07-5.16,2.07-8.5
				c0-3.63-0.91-6.58-2.72-8.83c-1.82-2.25-4.11-3.96-6.87-5.12c-2.76-1.16-5.74-1.96-8.94-2.4c-3.2-0.44-6.18-0.66-8.94-0.66
				h-25.73V1625.79z"/>
		</g>
		<g>
			<path class="st5" d="M1907.99,1588.73l-58-88.52h42.3l32.7,57.78l34.67-57.78H2000l-58,88.52v65.85h-34.01V1588.73z"/>
		</g>
	</g>
</g>
</svg>
